<?xml version="1.0" standalone="no"?>
<!DOCTYPE svg PUBLIC "-//W3C//DTD SVG 1.1//EN" "http://www.w3.org/Graphics/SVG/1.1/DTD/svg11.dtd" >
<!--
2013-9-30: Created.
-->
<svg>
<metadata>
Created by iconfont
</metadata>
<defs>

<font id="icon" horiz-adv-x="1024" >
  <font-face
    font-family="icon"
    font-weight="500"
    font-stretch="normal"
    units-per-em="1024"
    ascent="896"
    descent="-128"
  />
    <missing-glyph />
    
    <glyph glyph-name="x" unicode="x" horiz-adv-x="1001"
d="M281 543q-27 -1 -53 -1h-83q-18 0 -36.5 -6t-32.5 -18.5t-23 -32t-9 -45.5v-76h912v41q0 16 -0.5 30t-0.5 18q0 13 -5 29t-17 29.5t-31.5 22.5t-49.5 9h-133v-97h-438v97zM955 310v-52q0 -23 0.5 -52t0.5 -58t-10.5 -47.5t-26 -30t-33 -16t-31.5 -4.5q-14 -1 -29.5 -0.5
t-29.5 0.5h-32l-45 128h-439l-44 -128h-29h-34q-20 0 -45 1q-25 0 -41 9.5t-25.5 23t-13.5 29.5t-4 30v167h911zM163 247q-12 0 -21 -8.5t-9 -21.5t9 -21.5t21 -8.5q13 0 22 8.5t9 21.5t-9 21.5t-22 8.5zM316 123q-8 -26 -14 -48q-5 -19 -10.5 -37t-7.5 -25t-3 -15t1 -14.5
t9.5 -10.5t21.5 -4h37h67h81h80h64h36q23 0 34 12t2 38q-5 13 -9.5 30.5t-9.5 34.5q-5 19 -11 39h-368zM336 498v228q0 11 2.5 23t10 21.5t20.5 15.5t34 6h188q31 0 51.5 -14.5t20.5 -52.5v-227h-327z" />
    

    
    <glyph glyph-name="phone" unicode="&#58894;" d="M884.363636 221.090909a528.779636 528.779636 0 0 0-166.167272 26.530909 47.499636 47.499636 0 0 1-47.476364-11.170909l-102.4-102.4a701.649455 701.649455 0 0 0-306.734545 306.269091l102.4 102.865455a45.684364 45.684364 0 0 1 11.636363 47.010909 528.779636 528.779636 0 0 0-26.530909 166.167272 46.685091 46.685091 0 0 1-46.545454 46.545455h-162.909091a46.685091 46.685091 0 0 1-46.545455-46.545455 791.272727 791.272727 0 0 1 791.272727-791.272727 46.685091 46.685091 0 0 1 46.545455 46.545455v162.909091a46.685091 46.685091 0 0 1-46.545455 46.545454z"  horiz-adv-x="1024" />

    
    <glyph glyph-name="search" unicode="&#58895;" d="M433.237333 158.44266700000003a304.768 304.768 0 1 0 305.237334 304.853333 305.194667 305.194667 0 0 0-305.237334-304.853333z m0 585.194666a282.197333 282.197333 0 0 1-280.832-280.341333 280.853333 280.853333 0 0 1 561.685334 0 282.197333 282.197333 0 0 1-280.853334 280.341333z m451.904-743.637333a14.144 14.144 0 0 0-9.706666 2.496l-244.373334 243.818667a12.074667 12.074667 0 0 0 17.066667 17.066666l244.224-243.861333a11.776 11.776 0 0 0 0-17.066667 22.784 22.784 0 0 0-7.210667-2.496z m0 0"  horiz-adv-x="1024" />

    
    <glyph glyph-name="star_half" unicode="&#58896;" d="M967.111111 485.489778l-327.111111 27.847111L512 810.666667l-128-297.756445-327.111111-27.420444 248.490667-212.423111-74.638223-315.733334 281.258667 167.509334 281.258667-167.509334-74.183111 315.733334z m-455.111111-276.650667v417.678222l77.824-181.447111 199.338667-17.066666-151.096889-129.336889 45.511111-192.227556z"  horiz-adv-x="1024" />

    
    <glyph glyph-name="address" unicode="&#58897;" d="M500.363636 802.909091a291.863273 291.863273 0 0 1-290.909091-293.236364c0-219.927273 290.909091-544.581818 290.909091-544.581818s290.909091 324.654545 290.909091 544.581818a291.863273 291.863273 0 0 1-290.909091 293.236364z m0-397.963636a104.727273 104.727273 0 1 0 103.889455 104.727272 104.354909 104.354909 0 0 0-103.889455-104.727272z"  horiz-adv-x="1024" />

    
    <glyph glyph-name="star_full" unicode="&#58898;" d="M512 124.842667l281.258667-167.509334-74.638223 315.733334 248.490667 212.423111-327.111111 27.392L512 810.666667l-128-297.756445-327.111111-27.420444 248.490667-212.423111-74.638223-315.733334z"  horiz-adv-x="1024" />

    
    <glyph glyph-name="shopInfo" unicode="&#58899;" d="M512 896a512 512 0 1 1 512-512 512.192 512.192 0 0 1-512 512z m-51.2-918.016a409.002667 409.002667 0 0 0-358.4 406.016 415.637333 415.637333 0 0 0 10.666667 91.733333l245.333333-245.333333v-51.2a102.698667 102.698667 0 0 1 102.4-102.4z m353.28 130.133333a101.589333 101.589333 0 0 1-97.28 71.082667h-51.2v153.6a51.349333 51.349333 0 0 1-51.2 51.2h-307.2v102.4h102.4a51.349333 51.349333 0 0 1 51.2 51.2v102.4h102.4a102.698667 102.698667 0 0 1 102.4 102.4v20.992a408.682667 408.682667 0 0 0 148.48-655.36z"  horiz-adv-x="1024" />

    
    <glyph glyph-name="date" unicode="&#58900;" d="M511.581091 802.909091a418.909091 418.909091 0 1 1 419.328-418.909091 418.699636 418.699636 0 0 1-419.328 418.909091z m0.418909-754.036364a335.127273 335.127273 0 1 0 335.127273 335.127273 335.127273 335.127273 0 0 0-335.127273-335.127273z m20.945455 544.581818h-62.836364v-251.345454l219.927273-131.956364 31.418181 51.525818-188.50909 111.848728z"  horiz-adv-x="1024" />

    
    <glyph glyph-name="message" unicode="&#58901;" d="M819.2 768h-614.4a76.8 76.8 0 0 1-76.416-76.8L128 0l153.6 153.6h537.6a77.034667 77.034667 0 0 1 76.8 76.8v460.8a77.034667 77.034667 0 0 1-76.8 76.8z m-422.4-345.6h-76.8v76.8h76.8z m153.6 0h-76.8v76.8h76.8z m153.6 0h-76.8v76.8h76.8z"  horiz-adv-x="1024" />

    
    <glyph glyph-name="heart_full" unicode="&#58903;" d="M512 34.90909099999999l-60.741818 55.249454c-215.738182 195.444364-358.167273 324.352-358.167273 482.56a228.072727 228.072727 0 0 0 230.4 230.190546 250.949818 250.949818 0 0 0 188.509091-87.482182 250.949818 250.949818 0 0 0 188.509091 87.482182 228.072727 228.072727 0 0 0 230.4-230.190546c0-158.254545-142.429091-287.115636-358.167273-482.978909z"  horiz-adv-x="1024" />

    
    <glyph glyph-name="share" unicode="&#58904;" d="M768 207.50933299999997a123.968 123.968 0 0 1-83.626667-32.981333l-304.213333 177.770667a140.8 140.8 0 0 1 3.84 29.994666 140.8 140.8 0 0 1-3.84 29.994667l300.8 176.064a127.573333 127.573333 0 0 1 215.04 93.802667 128 128 0 1 1-256 0 140.8 140.8 0 0 1 3.84-29.994667l-300.8-176.064a128.512 128.512 0 1 1 0-187.733333l303.786667-178.197334a121.322667 121.322667 0 0 1-3.413334-27.84 124.586667 124.586667 0 1 1 124.586667 125.184z"  horiz-adv-x="1024" />

    
    <glyph glyph-name="all_order" unicode="&#58905;" d="M259.481861 828.51587v-51.194857h-6.981117a439.810365 439.810365 0 0 1-55.848935-2.327039 97.572744 97.572744 0 0 1-86.100442-93.081559v-628.300521a124.287151 124.287151 0 0 1 11.635195-58.175974 121.494704 121.494704 0 0 1 116.351948-74.465247h546.854157a121.006026 121.006026 0 0 1 121.006027 86.100442 132.641221 132.641221 0 0 1 6.981117 41.886702v621.319403a98.759534 98.759534 0 0 1-67.48413 97.735637 90.75452 90.75452 0 0 1-34.905585 4.654078h-48.867818v48.867818c51.194857 6.981117 100.062676 6.981117 144.276416-27.924467a140.483342 140.483342 0 0 0 55.848935-107.043793v-632.954599a169.01284 169.01284 0 0 0-60.503013-137.295299 176.854961 176.854961 0 0 0-116.351949-44.21374h-546.854157a169.990196 169.990196 0 0 0-162.892727 104.716754 153.863816 153.863816 0 0 0-13.962234 72.138208v621.319403a145.346854 145.346854 0 0 0 76.792286 132.641221 66.8791 66.8791 0 0 0 46.540779 20.943351c23.27039 2.327039 48.98417 2.327039 74.62814 4.654078z m0 0M371.226272 896h276.917637v-46.540779h-116.351948v-46.54078h93.081559v-46.540779h-232.703897v46.540779h93.081559v46.54078h-116.351949a321.852759 321.852759 0 0 1 2.327039 46.540779z m-97.735636-365.345118v41.886702a8.260988 8.260988 0 0 0 4.654078 2.327039h474.715949v-46.54078c-162.892728 2.327039-321.131377 2.327039-479.370027 2.327039z m0-158.238649v44.21374h477.042988v-44.21374z m474.715949-116.351949v-44.21374h-477.042988v44.21374z m0 0"  horiz-adv-x="1024" />

    
    <glyph glyph-name="heart_none" unicode="&#58906;" d="M699.950545 756.363636a250.624 250.624 0 0 1-188.346181-87.482181 250.624 250.624 0 0 1-188.322909 87.482181 228.072727 228.072727 0 0 1-230.190546-230.190545c0-158.254545 142.289455-287.115636 357.841455-482.978909l60.695272-54.830546 60.695273 55.249455c215.552 195.490909 357.841455 324.352 357.841455 482.56a228.072727 228.072727 0 0 1-230.213819 230.190545z m-184.15709-650.821818l-4.189091-4.189091-4.189091 4.189091c-199.191273 180.386909-330.542545 299.682909-330.542546 420.631273a143.034182 143.034182 0 0 0 146.408728 146.408727 163.630545 163.630545 0 0 0 149.410909-98.769454h78.266181a162.583273 162.583273 0 0 0 148.945455 98.769454 143.034182 143.034182 0 0 0 146.478545-146.478545c0.069818-120.878545-131.351273-240.174545-330.58909-420.561455z"  horiz-adv-x="1024" />

    
    <glyph glyph-name="set" unicode="&#58907;" d="M832.069818 342.946909a317.696 317.696 0 0 1 3.002182 41.053091 317.719273 317.719273 0 0 1-3.025455 41.053091l90.763637 69.12a20.736 20.736 0 0 1 5.166545 26.810182l-86.109091 144.942545a21.946182 21.946182 0 0 1-26.274909 9.309091l-107.240727-41.890909a316.881455 316.881455 0 0 1-72.773818 41.053091l-16.290909 111.010909a20.945455 20.945455 0 0 1-21.061818 17.501091h-172.218182a20.945455 20.945455 0 0 1-21.108364-17.594182l-16.290909-111.010909a333.218909 333.218909 0 0 1-72.913455-41.053091l-107.217454 41.890909a21.271273 21.271273 0 0 1-26.274909-9.309091l-86.109091-144.849454a20.270545 20.270545 0 0 1 5.166545-26.810182l90.763637-69.12a323.304727 323.304727 0 0 1-2.839273-41.053091 323.304727 323.304727 0 0 1 3.025455-41.053091l-90.763637-69.12a20.736 20.736 0 0 1-5.352727-26.810182l86.109091-144.942545a21.946182 21.946182 0 0 1 26.274909-9.309091l107.240727 41.890909a316.881455 316.881455 0 0 1 72.773818-41.053091l16.290909-111.010909a20.945455 20.945455 0 0 1 21.108364-17.594182h172.218182a20.945455 20.945455 0 0 1 21.108364 17.594182l16.290909 111.010909a333.218909 333.218909 0 0 1 72.773818 41.053091l107.240727-41.890909a21.271273 21.271273 0 0 1 26.274909 9.309091l86.109091 144.942545a20.736 20.736 0 0 1-5.166545 26.810182z m-319.976727-105.565091a146.618182 146.618182 0 1 0 150.714182 146.618182 148.945455 148.945455 0 0 0-150.714182-146.618182z"  horiz-adv-x="1024" />

    
    <glyph glyph-name="xiaofeisuanli" unicode="&#58908;" d="M626.245818 686.545455a304.663273 304.663273 0 1 1 304.663273-304.663273 304.570182 304.570182 0 0 1-304.663273 304.663273z m0-533.15491a228.491636 228.491636 0 1 0 228.491637 228.491637 228.677818 228.677818 0 0 0-228.491637-228.491637z m-456.983273 228.491637a228.072727 228.072727 0 0 0 152.32 215.156363v79.616a304.360727 304.360727 0 0 1 0-589.521454v79.592727a228.072727 228.072727 0 0 0-152.32 215.156364z"  horiz-adv-x="1024" />

    
    <glyph glyph-name="dailishang" unicode="&#58909;" d="M766.999273 686.545455h-145.617455l-287.511273-460.078546-95.06909 168.657455L402.618182 686.545455h-145.617455l-163.909818-291.421091 163.909818-291.397819h145.617455l287.511273 460.055273 95.06909-168.657454-163.816727-291.397819h145.710546l163.816727 291.397819z"  horiz-adv-x="1024" />

    
    <glyph glyph-name="star_none" unicode="&#58910;" d="M967.111111 485.489778l-327.111111 27.847111L512 810.666667l-128-297.756445-327.111111-27.420444 248.490667-212.423111-74.638223-315.733334 281.258667 167.509334 281.258667-167.509334-74.183111 315.733334z m-455.111111-276.650667l-171.121778-101.944889 45.511111 192.227556-151.096889 129.336889 199.338667 17.066666 77.368889 180.992 77.824-181.447111 199.338667-17.066666-151.096889-129.336889 45.511111-192.227556z"  horiz-adv-x="1024" />

    
    <glyph glyph-name="arrow_down" unicode="&#58911;" d="M519.10637933 635.7410280199999l503.48205606-503.48205604 503.48205606 503.48205605z"  horiz-adv-x="2048" />

    
    <glyph glyph-name="lock" unicode="&#58912;" d="M518.077887 114.88170000000002a97.139929 97.139929 0 1 1-97.161181 97.139929 97.437448 97.437448 0 0 1 97.161181-97.139929zM809.518925 552.0432579999999h-48.58059v97.139929a242.8817 242.8817 0 1 1-485.742148 0v-97.139929h-48.580591a97.437448 97.437448 0 0 1-97.139929-97.139929v-485.7634a97.437448 97.437448 0 0 1 97.139929-97.139929H809.518925a97.437448 97.437448 0 0 1 97.13993 97.139929v485.7634A97.437448 97.437448 0 0 1 809.518925 552.0432579999999z m-442.028117 97.139929a150.587079 150.587079 0 0 0 301.152906 0v-97.139929H367.490808z m442.028117-680.043258h-582.903329v485.7634H809.518925z"  horiz-adv-x="1024" />

    
    <glyph glyph-name="arrow_drop" unicode="&#58913;" d="M1527.22308403 132.25897197999996l-503.48205604 503.48205604-503.48205605-503.48205605z"  horiz-adv-x="2048" />

    
    <glyph glyph-name="shop" unicode="&#58914;" d="M827.076923 699.076923h-630.153846v-78.769231h630.153846z m39.384615-393.846154v78.769231l-39.384615 196.923077h-630.153846l-39.384615-196.923077v-78.769231h39.384615v-236.307692h393.846154v236.307692h157.538461v-236.307692h78.769231v236.307692z m-354.461538-157.538461h-236.307692v157.538461h236.307692z"  horiz-adv-x="1024" />

    
    <glyph glyph-name="cart" unicode="&#58915;" d="M370.215385 171.323077a70.892308 70.892308 0 1 1 70.892307-70.892308 70.892308 70.892308 0 0 1-70.892307 70.892308zM157.538462 738.461538v-70.892307h70.892307l127.606154-269.036308-47.852308-86.843077a68.529231 68.529231 0 0 1-8.861538-34.028308 71.108923 71.108923 0 0 1 70.892308-70.892307h425.353846v70.892307h-410.466462a8.782769 8.782769 0 0 0-8.861538 8.861539l1.063384 4.253538 31.901539 57.777231h264.073846a70.557538 70.557538 0 0 1 62.030769 36.509539l126.897231 230.045538a34.638769 34.638769 0 0 1 4.253538 17.014154 35.544615 35.544615 0 0 1-35.446153 35.446154h-524.248616l-33.319384 70.892307H157.538462z m567.138461-567.138461a70.892308 70.892308 0 1 1 70.892308-70.892308 70.892308 70.892308 0 0 1-70.892308 70.892308z"  horiz-adv-x="1024" />

    
    <glyph glyph-name="categrory" unicode="&#58916;" d="M261.907692 738.461538a102.892308 102.892308 0 0 1-104.36923-101.198769 102.892308 102.892308 0 0 1 104.36923-101.198769 102.892308 102.892308 0 0 1 104.369231 101.198769 102.892308 102.892308 0 0 1-104.369231 101.198769z m0-158.779076a58.683077 58.683077 0 0 0-59.451077 57.698461 58.683077 58.683077 0 0 0 59.451077 57.757539 58.683077 58.683077 0 0 0 59.451077-57.698462 58.683077 58.683077 0 0 0-59.451077-57.757538z m167.640616 79.458461H866.461538v-43.52h-436.992z m-167.640616-185.757538a101.257846 101.257846 0 1 1 0-202.417231 101.257846 101.257846 0 1 1 0 202.417231z m0-158.897231a57.718154 57.718154 0 1 0 0 115.396923 57.718154 57.718154 0 1 0 0-115.396923z m167.561846 79.36H866.461538v-43.500308h-436.992z m-167.561846-161.890462a101.257846 101.257846 0 1 1 0-202.41723 101.257846 101.257846 0 1 1 0 202.41723z m0-158.779077a57.718154 57.718154 0 1 0 0 115.396923 57.718154 57.718154 0 1 0 0-115.396923z m167.640616 79.340308H866.461538v-43.500308h-436.992z m0 0"  horiz-adv-x="1024" />

    
    <glyph glyph-name="index" unicode="&#58918;" d="M207.848656 500.329363c40.279937 0.627468 80.577303 1.864973 120.85724-0.627467 37.804925 0 45.317107 40.907404 47.7224 48.349867-63.217365 0-124.569756 2.475011-186.497327-0.627467a110.416875 110.416875 0 0 1-96.072268-92.377181 116.552114 116.552114 0 0 1 69.980072-128.317132 112.665301 112.665301 0 0 1 133.877193 39.042431c-29.752424 0-57.012407-0.627468-84.917287 0-52.062385 1.237506-84.917287 44.009883-69.422323 89.239842a65.186916 65.186916 0 0 0 64.4723 45.317107zM364.645848 301.369832a59.034247 59.034247 0 0 1-9.290007 64.48973c-5.57749-6.814996-8.052501-9.917475-12.392486-15.494965-50.197411-66.232695-127.044768-94.120146-200.807075-60.742353a158.609876 158.609876 0 0 0 58.249913 303.049441 3138.558281 3138.558281 0 0 0 76.847356 1.237505c11.15498 0 40.279937-0.627468 73.744878-0.627468h23.547466a93.597256 93.597256 0 0 1 40.279936 8.052502 94.991629 94.991629 0 0 1 44.027313 39.669899h-114.042244a1287.720466 1287.720466 0 0 1-169.904293-3.712517c-91.645135-10.544942-161.050028-86.154793-173.459943-182.209631a208.894436 208.894436 0 0 1 125.824691-211.962056 204.972763 204.972763 0 0 1 237.374495 58.249913zM596.477711 640.394085c-100.394823-1.864973-174.767168-66.232695-198.332063-164.867123-3.712517-14.867497-8.714828-17.429657-22.309961-17.429657-53.29989 0.627468-107.227248 0-160.527138 0.627468-13.629992 0-24.784972-3.102479-29.752424-16.732471a21.560485 21.560485 0 0 1 8.052502-26.022477 37.822355 37.822355 0 0 1 26.022477-5.57749c50.197411 0 100.394823-1.237506 150.609664 0.627467 20.444987 0.627468 26.022477-6.204958 29.752424-24.174933a205.251637 205.251637 0 0 1 321.629455-119.550016 198.471501 198.471501 0 0 1 72.507371 96.072268 282.604454 282.604454 0 0 1 11.154981 46.484894v1.237506a51.173472 51.173472 0 0 1-46.484895 37.194887v-10.457794a158.278712 158.278712 0 0 0-151.864598-162.479259 160.073967 160.073967 0 0 0-166.104629 153.694712 158.034697 158.034697 0 0 0 151.219702 163.00215c105.972313 2.475011 212.641812 1.237506 318.561835 1.237505a91.470838 91.470838 0 0 1 84.324679 48.349868c-135.724737-0.644897-267.126919 1.864973-398.459382-1.237505zM577.217941 434.00952a23.547466 23.547466 0 1 1 23.547466 23.547466 23.547466 23.547466 0 0 1-23.547466-23.547466zM598.917863 548.661801a114.791719 114.791719 0 0 1-33.46494-224.354541 115.384327 115.384327 0 0 1 110.312297 22.937429 106.320906 106.320906 0 0 1 30.362462 39.669898 91.000238 91.000238 0 0 1 8.052501 26.022478 50.981746 50.981746 0 0 1-47.060073 37.194887h-0.627468a49.378217 49.378217 0 0 1 0.627468-6.814996 69.352604 69.352604 0 0 0-46.484894-73.204558 81.169911 81.169911 0 0 0-16.732471-3.712517 68.51598 68.51598 0 0 0-70.03236 65.134627 65.709806 65.709806 0 0 0 70.03236 68.794855l239.239468 1.864974a80.176421 80.176421 0 0 1 76.847356 46.484894h-49.587373q-135.759596 0.888912-271.484333-0.01743z"  horiz-adv-x="1124" />

    
    <glyph glyph-name="wode" unicode="&#58919;" d="M512 738.461538a354.461538 354.461538 0 1 1 354.461538-354.461538 354.599385 354.599385 0 0 1-354.461538 354.461538z m0-106.338461a106.338462 106.338462 0 1 0-106.338462-106.338462 106.200615 106.200615 0 0 0 106.338462 106.338462z m0-503.335385a255.232 255.232 0 0 0-212.676923 114.215385c1.063385 70.537846 141.784615 109.174154 212.676923 109.174154 70.537846 0 211.613538-38.636308 212.676923-109.174154a255.232 255.232 0 0 0-212.676923-114.215385z"  horiz-adv-x="1024" />

    
    <glyph glyph-name="daishouhuo" unicode="&#58920;" d="M160.208031-127.90210300000001a92.585851 92.585851 0 0 0-91.753729 93.124283v534.614149h-10.915487a58.444359 58.444359 0 0 0-57.538815 58.884895v244.276864a92.561377 92.561377 0 0 0 91.753728 93.001912h893.30784a92.561377 92.561377 0 0 0 91.802677-93.001912v-244.154493a58.126195 58.126195 0 0 0-57.538815-58.884895h-10.98891v-534.614149a92.585851 92.585851 0 0 0-91.753728-93.124283z m-44.616444 92.634799a45.644359 45.644359 0 0 1 45.130402-45.815679h755.934225a45.056979 45.056979 0 0 1 32.256979 13.607648 46.035946 46.035946 0 0 1 13.387381 32.721989l0.489483 534.100191h-847.19847z m-69.457744 838.265392v-255.216826l984.107075-0.513958V802.998088a45.644359 45.644359 0 0 1-45.130402 45.815679h-893.846271a45.326195 45.326195 0 0 1-45.130402-45.815679z m363.099044-616.162142a93.148757 93.148757 0 0 0 0 186.248566h258.422945a93.148757 93.148757 0 0 0 0-186.248566z m-45.130401 93.001913a45.76673 45.76673 0 0 1 45.130401-46.305163h258.422945a46.329637 46.329637 0 0 1 0 92.634799h-258.422945a46.500956 46.500956 0 0 1-45.154876-46.329636z"  horiz-adv-x="1076" />

    
    <glyph glyph-name="daifukuan" unicode="&#58921;" d="M1232.382397-47.51440000000002v119.61238H1288.732597v479.972497h-58.048907v109.85946a90.792942 90.792942 0 0 1-85.462518 91.671584h-84.935333V896h-910.096739c-37.195818 0-91.378703-0.380745-120.66675-41.852618-18.539333-26.359241-27.237883-50.375439-26.359241-138.063848 0-0.527185 3.983174-47.827379-2.928805-48.325276-0.263592-2.928805 2.6945-2.928805 2.694501-5.857609l1.78657-709.444337a81.157175 81.157175 0 0 1 85.462518-80.33711h1056.97629a81.127887 81.127887 0 0 1 85.462518 80.33711m-1.171522 175.435395h-420.576339a185.803363 185.803363 0 1 0 0 371.606727l421.542845-0.43932-1.171522-371.138119m-1155.58914 686.746101a67.362506 67.362506 0 0 0 56.701657 24.806975h871.202214v-85.843262h-900.168092a85.14035 85.14035 0 0 1-44.95715-14.644023 95.47903 95.47903 0 0 0 17.221371 75.621734m-16.606322-853.307218v691.754357a43.492748 43.492748 0 0 0 38.074459 43.932069h1039.081294a43.551324 43.551324 0 0 0 38.07446-43.932069v-100.955894h-365.690542a237.906797 237.906797 0 0 1-236.881715-238.375406 240.747738 240.747738 0 0 1 236.881715-241.597091h365.749118v-110.76739a33.827693 33.827693 0 0 0-38.07446-32.656171h-1039.13987a33.798405 33.798405 0 0 0-38.074459 32.656171m692.89659 353.301698a86.63404 86.63404 0 0 1 83.998116-95.332589 104.880492 104.880492 0 0 1 105.436965 95.332589 94.746829 94.746829 0 1 1-189.493657 0m94.746829 47.710227a47.680939 47.680939 0 1 0-47.358771-47.710227 47.593075 47.593075 0 0 0 47.358771 47.710227m0 0z"  horiz-adv-x="1288" />

    
    <glyph glyph-name="delete" unicode="&#58922;" d="M170.666667-14.222221999999988a114.119111 114.119111 0 0 1 113.777777-113.777778h455.111112a114.119111 114.119111 0 0 1 113.777777 113.777778v682.666666h-682.666666z m139.946666 405.048889l80.213334 80.213333 121.173333-120.604444 120.604444 120.604444 80.213334-80.213333-120.604445-120.604445 120.604445-120.604444-80.213334-80.213334-120.604444 120.604445-120.604444-120.604445-80.213334 80.213334 120.604445 120.604444zM711.111111 839.111111l-56.888889 56.888889h-284.444444l-56.888889-56.888889h-199.111111v-113.777778h796.444444v113.777778z"  horiz-adv-x="1024" />

    
    <glyph glyph-name="edit" unicode="&#58923;" d="M757.212874 597.242801l-159.935692 159.964135-426.646875-426.646875v-159.964135h159.964135z m126.287475 126.287475a42.494029 42.494029 0 0 1 0 60.15721l-99.835369 99.806925a42.494029 42.494029 0 0 1-60.157209 0l-83.565902-83.622787 159.935692-159.964135zM0 42.658750000000055h1023.9525v-170.65875h-1023.9525z"  horiz-adv-x="1024" />

    
    <glyph glyph-name="back" unicode="&#58917;" d="M703.424 0a14.314667 14.314667 0 0 0-9.834667 2.517333l-371.072 370.944c-2.517333 2.538667-2.517333 5.034667-2.517333 9.962667s2.517333 7.445333 2.517333 9.834667l370.944 371.008a11.946667 11.946667 0 0 0 17.28 0 11.946667 11.946667 0 0 0 0-17.28l-361.109333-363.562667 363.626667-363.690667a11.946667 11.946667 0 0 0 0-17.28 14.485333 14.485333 0 0 0-9.834667-2.517333z m0 0"  horiz-adv-x="1024" />

    


  </font>
</defs>
</svg>
